<svg width="128" height="128" viewBox="0 0 128 128" fill="none" xmlns="http://www.w3.org/2000/svg">
<path d="M64 0C28.7 0 0 28.7 0 64s28.7 64 64 64 64-28.7 64-64S99.3 0 64 0zm23.1 89.3c-1.1 1.6-3.5 2.1-5.1 1-12.1-7.4-27.3-9.1-45.2-5-1.7.4-3.4-.9-3.8-2.6-.4-1.7.9-3.4 2.6-3.8 19.4-4.4 36.1-2.5 49.4 5.7 1.6 1 2.1 3.4 1 5.1zm6.3-13.8c-1.4 2.2-4.4 2.9-6.6 1.5-13.8-8.5-34.8-11-51.1-6-2.1.5-4.3-.8-4.8-2.9-.5-2.1.8-4.3 2.9-4.8 18.4-5.5 41.3-2.7 56.8 6.8 2.2 1.4 2.9 4.4 1.5 6.6zm.5-14.3c-16.5-9.8-43.7-10.7-59.2-5.9-2.5.8-5.1-.8-5.9-3.3-.8-2.5.8-5.1 3.3-5.9 17.6-5.3 47.1-4.2 65.8 6.7 2.1 1.2 2.8 3.8 1.6 5.9-1.2 2.1-3.8 2.8-5.9 1.6z" fill="#06B6D4"/>
</svg>
