<svg width="128" height="128" viewBox="0 0 128 128" fill="none" xmlns="http://www.w3.org/2000/svg">
<path d="M34 59L67.1364 25.7442V59H34Z" fill="#FBBB00" stroke="#FBBB00"/>
<path d="M88 4L74.5 17.4302V59H88V4Z" fill="#FBBB00" stroke="#FBBB00"/>
<path d="M22.9609 70.3359H26.1719L33.4258 83.4258V70.3359H35.8984V87H32.6875L25.4336 74.0859V87H22.9609V70.3359ZM38.9453 77.3672C38.9453 76.6719 39.1992 76.082 39.707 75.5977C40.2148 75.1055 40.8242 74.8594 41.5352 74.8594H46.5977C47.2461 74.8594 47.832 75.0195 48.3555 75.3398C48.8867 75.6523 49.3086 76.0781 49.6211 76.6172C49.9414 77.1484 50.1016 77.7383 50.1016 78.3867V78.7266C50.1016 79.3672 49.9414 79.9531 49.6211 80.4844C49.3086 81.0078 48.8867 81.4297 48.3555 81.75C47.832 82.0625 47.2461 82.2188 46.5977 82.2188H42.8242V79.7578H46.6211C46.9023 79.7578 47.1406 79.6562 47.3359 79.4531C47.5391 79.25 47.6406 79.0039 47.6406 78.7148V78.3867C47.6406 78.0898 47.5391 77.8398 47.3359 77.6367C47.1406 77.4336 46.9023 77.332 46.6211 77.332H41.418V83.5664C41.418 83.832 41.5078 84.0586 41.6875 84.2461C41.8672 84.4336 42.0859 84.5273 42.3438 84.5273H49.2461V87H42.3438C41.7188 87 41.1484 86.8477 40.6328 86.543C40.1172 86.2305 39.707 85.8164 39.4023 85.3008C39.0977 84.7773 38.9453 84.2031 38.9453 83.5781V77.3672ZM56.6875 80.918L51.7422 74.8594H54.8945L58.3047 79.0664L61.7148 74.8594H64.8555L59.9219 80.918L64.8555 87H61.7266L58.3047 82.793L54.8828 87H51.7422L56.6875 80.918ZM66.3906 79.2188C66.3906 78.4141 66.5859 77.6836 66.9766 77.0273C67.375 76.3711 67.9062 75.8477 68.5703 75.457C69.2344 75.0586 69.9688 74.8594 70.7734 74.8594H77.5469V87H75.0742V77.332H70.7734C70.25 77.332 69.8008 77.5195 69.4258 77.8945C69.0508 78.2617 68.8633 78.7109 68.8633 79.2422V82.5938C68.8633 83.125 69.0508 83.582 69.4258 83.9648C69.8008 84.3398 70.25 84.5273 70.7734 84.5273H73.668V87H70.7734C69.9688 87 69.2344 86.8047 68.5703 86.4141C67.9062 86.0156 67.375 85.4844 66.9766 84.8203C66.5859 84.1562 66.3906 83.4219 66.3906 82.6172V79.2188ZM80.3594 78.2578C80.3594 77.6328 80.5156 77.0625 80.8281 76.5469C81.1484 76.0312 81.5703 75.6211 82.0938 75.3164C82.625 75.0117 83.2109 74.8594 83.8516 74.8594H86.5586V77.3203H83.8516C83.5703 77.3203 83.3281 77.418 83.125 77.6133C82.9297 77.8008 82.832 78.0312 82.832 78.3047V87H80.3594V78.2578ZM88.5156 71.5547C88.5156 71.1328 88.6641 70.7734 88.9609 70.4766C89.2578 70.1797 89.6172 70.0312 90.0391 70.0312C90.4609 70.0312 90.8203 70.1797 91.1172 70.4766C91.4141 70.7734 91.5625 71.1328 91.5625 71.5547C91.5625 71.9766 91.4141 72.3359 91.1172 72.6328C90.8203 72.9297 90.4609 73.0781 90.0391 73.0781C89.6172 73.0781 89.2578 72.9297 88.9609 72.6328C88.6641 72.3359 88.5156 71.9766 88.5156 71.5547ZM88.7969 74.8594H91.2812V87H88.7969V74.8594ZM93.9766 78.2695C93.9766 77.6367 94.1328 77.0625 94.4453 76.5469C94.7656 76.0312 95.1875 75.6211 95.7109 75.3164C96.2422 75.0117 96.8281 74.8594 97.4688 74.8594H104.594V77.332H97.4688C97.1875 77.332 96.9453 77.4258 96.7422 77.6133C96.5469 77.793 96.4492 78.0117 96.4492 78.2695V78.5625C96.4492 78.8281 96.5469 79.0547 96.7422 79.2422C96.9453 79.4297 97.1875 79.5234 97.4688 79.5234H101.898C102.539 79.5234 103.121 79.6797 103.645 79.9922C104.176 80.2969 104.598 80.707 104.91 81.2227C105.223 81.7383 105.379 82.3125 105.379 82.9453V83.5781C105.379 84.2031 105.223 84.7773 104.91 85.3008C104.598 85.8164 104.176 86.2305 103.645 86.543C103.121 86.8477 102.539 87 101.898 87H94.5273V84.5273H101.898C102.18 84.5273 102.418 84.4336 102.613 84.2461C102.816 84.0586 102.918 83.832 102.918 83.5664V82.957C102.918 82.6836 102.816 82.4531 102.613 82.2656C102.418 82.0781 102.18 81.9844 101.898 81.9844H97.4688C96.8281 81.9844 96.2422 81.832 95.7109 81.5273C95.1875 81.2148 94.7656 80.8008 94.4453 80.2852C94.1328 79.7617 93.9766 79.1875 93.9766 78.5625V78.2695Z" fill="white"/>
<path d="M38.9805 94.2793H45.4883V95.7148H40.4229V104H38.9805V94.2793ZM41.2432 98.2236H45.4883V99.6592H41.2432V98.2236ZM46.9648 94.9902C46.9648 94.7441 47.0514 94.5345 47.2246 94.3613C47.3978 94.1882 47.6074 94.1016 47.8535 94.1016C48.0996 94.1016 48.3092 94.1882 48.4824 94.3613C48.6556 94.5345 48.7422 94.7441 48.7422 94.9902C48.7422 95.2363 48.6556 95.446 48.4824 95.6191C48.3092 95.7923 48.0996 95.8789 47.8535 95.8789C47.6074 95.8789 47.3978 95.7923 47.2246 95.6191C47.0514 95.446 46.9648 95.2363 46.9648 94.9902ZM47.1289 96.918H48.5781V104H47.1289V96.918ZM50.2188 98.3535C50.2188 97.957 50.36 97.6198 50.6426 97.3418C50.9297 97.0592 51.2738 96.918 51.6748 96.918H54.1699C54.6393 96.918 55.0677 97.0342 55.4551 97.2666C55.8424 97.4945 56.1501 97.8021 56.3779 98.1895C56.6104 98.5768 56.7266 99.0052 56.7266 99.4746V104H55.2842V99.4951C55.2842 99.1761 55.1748 98.9049 54.9561 98.6816C54.7419 98.4583 54.4798 98.3467 54.1699 98.3467H51.6611V104H50.2188V98.3535ZM58.2988 99.4609C58.2988 98.9915 58.4128 98.5654 58.6406 98.1826C58.873 97.7998 59.1829 97.4945 59.5703 97.2666C59.9577 97.0342 60.3861 96.918 60.8555 96.918H64.8066V104H63.3643V98.3604H60.8555C60.5501 98.3604 60.2881 98.4697 60.0693 98.6885C59.8506 98.9027 59.7412 99.1647 59.7412 99.4746V101.43C59.7412 101.74 59.8506 102.006 60.0693 102.229C60.2881 102.448 60.5501 102.558 60.8555 102.558H62.5439V104H60.8555C60.3861 104 59.9577 103.886 59.5703 103.658C59.1829 103.426 58.873 103.116 58.6406 102.729C58.4128 102.341 58.2988 101.913 58.2988 101.443V99.4609ZM66.4473 98.3535C66.4473 97.957 66.5885 97.6198 66.8711 97.3418C67.1582 97.0592 67.5023 96.918 67.9033 96.918H70.3984C70.8678 96.918 71.2962 97.0342 71.6836 97.2666C72.071 97.4945 72.3786 97.8021 72.6064 98.1895C72.8389 98.5768 72.9551 99.0052 72.9551 99.4746V104H71.5127V99.4951C71.5127 99.1761 71.4033 98.9049 71.1846 98.6816C70.9704 98.4583 70.7083 98.3467 70.3984 98.3467H67.8896V104H66.4473V98.3535ZM74.5273 99.4746C74.5273 99.0052 74.6458 98.5768 74.8828 98.1895C75.1198 97.8021 75.4365 97.4945 75.833 97.2666C76.2295 97.0342 76.6693 96.918 77.1523 96.918H81.1377V98.3604H77.1523C76.8288 98.3604 76.5508 98.472 76.3184 98.6953C76.0859 98.9141 75.9697 99.1807 75.9697 99.4951V101.416C75.9697 101.73 76.0837 101.999 76.3115 102.223C76.5439 102.446 76.8242 102.558 77.1523 102.558H81.1377V104H77.1523C76.6693 104 76.2295 103.884 75.833 103.651C75.4365 103.419 75.1198 103.109 74.8828 102.722C74.6458 102.33 74.5273 101.899 74.5273 101.43V99.4746ZM82.7168 98.3809C82.7168 97.9753 82.8649 97.6312 83.1611 97.3486C83.4574 97.0615 83.8128 96.918 84.2275 96.918H87.1807C87.5589 96.918 87.9007 97.0114 88.2061 97.1982C88.516 97.3805 88.762 97.6289 88.9443 97.9434C89.1312 98.2533 89.2246 98.5973 89.2246 98.9756V99.1738C89.2246 99.5475 89.1312 99.8893 88.9443 100.199C88.762 100.505 88.516 100.751 88.2061 100.938C87.9007 101.12 87.5589 101.211 87.1807 101.211H84.9795V99.7754H87.1943C87.3584 99.7754 87.4974 99.7161 87.6113 99.5977C87.7298 99.4792 87.7891 99.3356 87.7891 99.167V98.9756C87.7891 98.8024 87.7298 98.6566 87.6113 98.5381C87.4974 98.4196 87.3584 98.3604 87.1943 98.3604H84.1592V101.997C84.1592 102.152 84.2116 102.284 84.3164 102.394C84.4212 102.503 84.5488 102.558 84.6992 102.558H88.7256V104H84.6992C84.3346 104 84.002 103.911 83.7012 103.733C83.4004 103.551 83.1611 103.31 82.9834 103.009C82.8057 102.703 82.7168 102.368 82.7168 102.004V98.3809Z" fill="white"/>
</svg>
